<?xml version="1.0" encoding="UTF-8" standalone="no"?>
<!DOCTYPE svg PUBLIC "-//W3C//DTD SVG 1.1//EN"
 "http://www.w3.org/Graphics/SVG/1.1/DTD/svg11.dtd">
<!-- Generated by graphviz version 2.40.1 (20161225.0304)
 -->
<!-- Title: G Pages: 1 -->
<svg width="346pt" height="696pt"
 viewBox="0.00 0.00 346.00 696.00" xmlns="http://www.w3.org/2000/svg" xmlns:xlink="http://www.w3.org/1999/xlink">
<g id="graph0" class="graph" transform="scale(1 1) rotate(0) translate(4 692)">
<title>G</title>
<polygon fill="#ffffff" stroke="transparent" points="-4,4 -4,-692 342,-692 342,4 -4,4"/>
<g id="clust1" class="cluster">
<title>cluster_Global</title>
<path fill="none" stroke="#c0c0c0" d="M20,-8C20,-8 318,-8 318,-8 324,-8 330,-14 330,-20 330,-20 330,-668 330,-668 330,-674 324,-680 318,-680 318,-680 20,-680 20,-680 14,-680 8,-674 8,-668 8,-668 8,-20 8,-20 8,-14 14,-8 20,-8"/>
<text text-anchor="middle" x="169" y="-667.2" font-family="Times,serif" font-size="11.00" fill="#c0c0c0">Global</text>
</g>
<g id="clust2" class="cluster">
<title>cluster_\HttpLog</title>
<path fill="none" stroke="#c0c0c0" d="M28,-16C28,-16 310,-16 310,-16 316,-16 322,-22 322,-28 322,-28 322,-640 322,-640 322,-646 316,-652 310,-652 310,-652 28,-652 28,-652 22,-652 16,-646 16,-640 16,-640 16,-28 16,-28 16,-22 22,-16 28,-16"/>
<text text-anchor="middle" x="169" y="-639.2" font-family="Times,serif" font-size="11.00" fill="#c0c0c0">HttpLog</text>
</g>
<g id="clust3" class="cluster">
<title>cluster_\HttpLog\Filters</title>
<path fill="none" stroke="#c0c0c0" d="M192,-498C192,-498 302,-498 302,-498 308,-498 314,-504 314,-510 314,-510 314,-612 314,-612 314,-618 308,-624 302,-624 302,-624 192,-624 192,-624 186,-624 180,-618 180,-612 180,-612 180,-510 180,-510 180,-504 186,-498 192,-498"/>
<text text-anchor="middle" x="247" y="-611.2" font-family="Times,serif" font-size="11.00" fill="#c0c0c0">Filters</text>
</g>
<g id="clust4" class="cluster">
<title>cluster_\HttpLog\Errors</title>
<path fill="none" stroke="#c0c0c0" d="M202,-418C202,-418 292,-418 292,-418 298,-418 304,-424 304,-430 304,-430 304,-478 304,-478 304,-484 298,-490 292,-490 292,-490 202,-490 202,-490 196,-490 190,-484 190,-478 190,-478 190,-430 190,-430 190,-424 196,-418 202,-418"/>
<text text-anchor="middle" x="247" y="-477.2" font-family="Times,serif" font-size="11.00" fill="#c0c0c0">Errors</text>
</g>
<g id="clust5" class="cluster">
<title>cluster_\HttpLog\Loggers</title>
<path fill="none" stroke="#c0c0c0" d="M36,-338C36,-338 285,-338 285,-338 291,-338 297,-344 297,-350 297,-350 297,-398 297,-398 297,-404 291,-410 285,-410 285,-410 36,-410 36,-410 30,-410 24,-404 24,-398 24,-398 24,-350 24,-350 24,-344 30,-338 36,-338"/>
<text text-anchor="middle" x="160.5" y="-397.2" font-family="Times,serif" font-size="11.00" fill="#c0c0c0">Loggers</text>
</g>
<g id="clust6" class="cluster">
<title>cluster_\HttpLog\Utils</title>
<path fill="none" stroke="#c0c0c0" d="M205.5,-258C205.5,-258 288.5,-258 288.5,-258 294.5,-258 300.5,-264 300.5,-270 300.5,-270 300.5,-318 300.5,-318 300.5,-324 294.5,-330 288.5,-330 288.5,-330 205.5,-330 205.5,-330 199.5,-330 193.5,-324 193.5,-318 193.5,-318 193.5,-270 193.5,-270 193.5,-264 199.5,-258 205.5,-258"/>
<text text-anchor="middle" x="247" y="-317.2" font-family="Times,serif" font-size="11.00" fill="#c0c0c0">Utils</text>
</g>
<g id="clust7" class="cluster">
<title>cluster_\HttpLog\HttpModels</title>
<path fill="none" stroke="#c0c0c0" d="M215.5,-70C215.5,-70 278.5,-70 278.5,-70 284.5,-70 290.5,-76 290.5,-82 290.5,-82 290.5,-238 290.5,-238 290.5,-244 284.5,-250 278.5,-250 278.5,-250 215.5,-250 215.5,-250 209.5,-250 203.5,-244 203.5,-238 203.5,-238 203.5,-82 203.5,-82 203.5,-76 209.5,-70 215.5,-70"/>
<text text-anchor="middle" x="247" y="-237.2" font-family="Times,serif" font-size="11.00" fill="#c0c0c0">HttpModels</text>
</g>
<!-- \\HttpLog\\Filters\\DefaultFilters -->
<g id="node1" class="node">
<title>\\HttpLog\\Filters\\DefaultFilters</title>
<polygon fill="none" stroke="#000000" points="302.5,-596 191.5,-596 191.5,-560 302.5,-560 302.5,-596"/>
<text text-anchor="middle" x="247" y="-575.2" font-family="Courier,monospace" font-size="11.00" fill="#000000">DefaultFilters</text>
</g>
<!-- \\HttpLog\\Filters\\ParameterFilter -->
<g id="node2" class="node">
<title>\\HttpLog\\Filters\\ParameterFilter</title>
<polygon fill="none" stroke="#000000" points="306,-542 188,-542 188,-506 306,-506 306,-542"/>
<text text-anchor="middle" x="247" y="-521.2" font-family="Courier,monospace" font-size="11.00" fill="#000000">ParameterFilter</text>
</g>
<!-- \\HttpLog\\Errors\\ErrorHandler -->
<g id="node3" class="node">
<title>\\HttpLog\\Errors\\ErrorHandler</title>
<polygon fill="none" stroke="#000000" points="296,-462 198,-462 198,-426 296,-426 296,-462"/>
<text text-anchor="middle" x="247" y="-441.2" font-family="Courier,monospace" font-size="11.00" fill="#000000">ErrorHandler</text>
</g>
<!-- \\HttpLog\\Loggers\\BaseLogger -->
<g id="node4" class="node">
<title>\\HttpLog\\Loggers\\BaseLogger</title>
<polygon fill="none" stroke="#000000" points="116,-382 32,-382 32,-346 116,-346 116,-382"/>
<text text-anchor="start" x="40" y="-367.2" font-family="Courier,monospace" font-size="11.00" fill="#000000">«abstract»</text>
<text text-anchor="start" x="40" y="-355.2" font-family="Courier,monospace" font-size="11.00" fill="#000000">BaseLogger</text>
</g>
<!-- \\HttpLog\\Loggers\\FileLogger -->
<g id="node5" class="node">
<title>\\HttpLog\\Loggers\\FileLogger</title>
<polygon fill="none" stroke="#000000" points="289,-382 205,-382 205,-346 289,-346 289,-382"/>
<text text-anchor="middle" x="247" y="-361.2" font-family="Courier,monospace" font-size="11.00" fill="#000000">FileLogger</text>
</g>
<!-- \\HttpLog\\Loggers\\FileLogger&#45;&gt;\\HttpLog\\Loggers\\BaseLogger -->
<g id="edge1" class="edge">
<title>\\HttpLog\\Loggers\\FileLogger&#45;&gt;\\HttpLog\\Loggers\\BaseLogger</title>
<path fill="none" stroke="#000000" d="M204.6794,-364C181.0293,-364 151.3561,-364 126.2653,-364"/>
<polygon fill="none" stroke="#000000" points="126.1832,-360.5001 116.1831,-364 126.1831,-367.5001 126.1832,-360.5001"/>
</g>
<!-- \\HttpLog\\Utils\\HeaderUtils -->
<g id="node6" class="node">
<title>\\HttpLog\\Utils\\HeaderUtils</title>
<polygon fill="none" stroke="#000000" points="292.5,-302 201.5,-302 201.5,-266 292.5,-266 292.5,-302"/>
<text text-anchor="middle" x="247" y="-281.2" font-family="Courier,monospace" font-size="11.00" fill="#000000">HeaderUtils</text>
</g>
<!-- \\HttpLog\\HttpModels\\Response -->
<g id="node7" class="node">
<title>\\HttpLog\\HttpModels\\Response</title>
<polygon fill="none" stroke="#000000" points="282.5,-222 211.5,-222 211.5,-186 282.5,-186 282.5,-222"/>
<text text-anchor="middle" x="247" y="-201.2" font-family="Courier,monospace" font-size="11.00" fill="#000000">Response</text>
</g>
<!-- \\HttpLog\\HttpModels\\Request -->
<g id="node8" class="node">
<title>\\HttpLog\\HttpModels\\Request</title>
<polygon fill="none" stroke="#000000" points="279,-168 215,-168 215,-132 279,-132 279,-168"/>
<text text-anchor="middle" x="247" y="-147.2" font-family="Courier,monospace" font-size="11.00" fill="#000000">Request</text>
</g>
<!-- \\HttpLog\\HttpModels\\Error -->
<g id="node9" class="node">
<title>\\HttpLog\\HttpModels\\Error</title>
<polygon fill="none" stroke="#000000" points="274,-114 220,-114 220,-78 274,-78 274,-114"/>
<text text-anchor="middle" x="247" y="-93.2" font-family="Courier,monospace" font-size="11.00" fill="#000000">Error</text>
</g>
<!-- \\HttpLog\\HttpLogger -->
<g id="node10" class="node">
<title>\\HttpLog\\HttpLogger</title>
<polygon fill="none" stroke="#000000" points="289,-60 205,-60 205,-24 289,-24 289,-60"/>
<text text-anchor="middle" x="247" y="-39.2" font-family="Courier,monospace" font-size="11.00" fill="#000000">HttpLogger</text>
</g>
</g>
</svg>
