<?xml version="1.0" encoding="UTF-8" standalone="no"?>
<!DOCTYPE svg PUBLIC "-//W3C//DTD SVG 1.1//EN"
 "http://www.w3.org/Graphics/SVG/1.1/DTD/svg11.dtd">
<!-- Generated by graphviz version 2.40.1 (20161225.0304)
 -->
<!-- Title: G Pages: 1 -->
<svg width="346pt" height="696pt"
 viewBox="0.00 0.00 346.00 696.00" xmlns="http://www.w3.org/2000/svg" xmlns:xlink="http://www.w3.org/1999/xlink">
<g id="graph0" class="graph" transform="scale(1 1) rotate(0) translate(4 692)">
<title>G</title>
<polygon fill="#ffffff" stroke="transparent" points="-4,4 -4,-692 342,-692 342,4 -4,4"/>
<g id="clust1" class="cluster">
<title>cluster_Global</title>
<path fill="none" stroke="#c0c0c0" d="M20,-8C20,-8 318,-8 318,-8 324,-8 330,-14 330,-20 330,-20 330,-668 330,-668 330,-674 324,-680 318,-680 318,-680 20,-680 20,-680 14,-680 8,-674 8,-668 8,-668 8,-20 8,-20 8,-14 14,-8 20,-8"/>
<text text-anchor="middle" x="169" y="-667.2" font-family="Times,serif" font-size="11.00" fill="#c0c0c0">Global</text>
</g>
<g id="clust2" class="cluster">
<title>cluster_\HttpLog</title>
<path fill="none" stroke="#c0c0c0" d="M28,-16C28,-16 310,-16 310,-16 316,-16 322,-22 322,-28 322,-28 322,-640 322,-640 322,-646 316,-652 310,-652 310,-652 28,-652 28,-652 22,-652 16,-646 16,-640 16,-640 16,-28 16,-28 16,-22 22,-16 28,-16"/>
<text text-anchor="middle" x="169" y="-639.2" font-family="Times,serif" font-size="11.00" fill="#c0c0c0">HttpLog</text>
</g>
<g id="clust3" class="cluster">
<title>cluster_\HttpLog\Filters</title>
<path fill="none" stroke="#c0c0c0" d="M192,-498C192,-498 302,-498 302,-498 308,-498 314,-504 314,-510 314,-510 314,-612 314,-612 314,-618 308,-624 302,-624 302,-624 192,-624 192,-624 186,-624 180,-618 180,-612 180,-612 180,-510 180,-510 180,-504 186,-498 192,-498"/>
<text text-anchor="middle" x="247" y="-611.2" font-family="Times,serif" font-size="11.00" fill="#c0c0c0">Filters</text>
</g>
<g id="clust4" class="cluster">
<title>cluster_\HttpLog\Utils</title>
<path fill="none" stroke="#c0c0c0" d="M205.5,-418C205.5,-418 288.5,-418 288.5,-418 294.5,-418 300.5,-424 300.5,-430 300.5,-430 300.5,-478 300.5,-478 300.5,-484 294.5,-490 288.5,-490 288.5,-490 205.5,-490 205.5,-490 199.5,-490 193.5,-484 193.5,-478 193.5,-478 193.5,-430 193.5,-430 193.5,-424 199.5,-418 205.5,-418"/>
<text text-anchor="middle" x="247" y="-477.2" font-family="Times,serif" font-size="11.00" fill="#c0c0c0">Utils</text>
</g>
<g id="clust5" class="cluster">
<title>cluster_\HttpLog\HttpModels</title>
<path fill="none" stroke="#c0c0c0" d="M215.5,-230C215.5,-230 278.5,-230 278.5,-230 284.5,-230 290.5,-236 290.5,-242 290.5,-242 290.5,-398 290.5,-398 290.5,-404 284.5,-410 278.5,-410 278.5,-410 215.5,-410 215.5,-410 209.5,-410 203.5,-404 203.5,-398 203.5,-398 203.5,-242 203.5,-242 203.5,-236 209.5,-230 215.5,-230"/>
<text text-anchor="middle" x="247" y="-397.2" font-family="Times,serif" font-size="11.00" fill="#c0c0c0">HttpModels</text>
</g>
<g id="clust6" class="cluster">
<title>cluster_\HttpLog\Errors</title>
<path fill="none" stroke="#c0c0c0" d="M202,-150C202,-150 292,-150 292,-150 298,-150 304,-156 304,-162 304,-162 304,-210 304,-210 304,-216 298,-222 292,-222 292,-222 202,-222 202,-222 196,-222 190,-216 190,-210 190,-210 190,-162 190,-162 190,-156 196,-150 202,-150"/>
<text text-anchor="middle" x="247" y="-209.2" font-family="Times,serif" font-size="11.00" fill="#c0c0c0">Errors</text>
</g>
<g id="clust7" class="cluster">
<title>cluster_\HttpLog\Loggers</title>
<path fill="none" stroke="#c0c0c0" d="M36,-70C36,-70 285,-70 285,-70 291,-70 297,-76 297,-82 297,-82 297,-130 297,-130 297,-136 291,-142 285,-142 285,-142 36,-142 36,-142 30,-142 24,-136 24,-130 24,-130 24,-82 24,-82 24,-76 30,-70 36,-70"/>
<text text-anchor="middle" x="160.5" y="-129.2" font-family="Times,serif" font-size="11.00" fill="#c0c0c0">Loggers</text>
</g>
<!-- \\HttpLog\\Filters\\DefaultFilters -->
<g id="node1" class="node">
<title>\\HttpLog\\Filters\\DefaultFilters</title>
<polygon fill="none" stroke="#000000" points="302.5,-596 191.5,-596 191.5,-560 302.5,-560 302.5,-596"/>
<text text-anchor="middle" x="247" y="-575.2" font-family="Courier,monospace" font-size="11.00" fill="#000000">DefaultFilters</text>
</g>
<!-- \\HttpLog\\Filters\\ParameterFilter -->
<g id="node2" class="node">
<title>\\HttpLog\\Filters\\ParameterFilter</title>
<polygon fill="none" stroke="#000000" points="306,-542 188,-542 188,-506 306,-506 306,-542"/>
<text text-anchor="middle" x="247" y="-521.2" font-family="Courier,monospace" font-size="11.00" fill="#000000">ParameterFilter</text>
</g>
<!-- \\HttpLog\\Utils\\HeaderUtils -->
<g id="node3" class="node">
<title>\\HttpLog\\Utils\\HeaderUtils</title>
<polygon fill="none" stroke="#000000" points="292.5,-462 201.5,-462 201.5,-426 292.5,-426 292.5,-462"/>
<text text-anchor="middle" x="247" y="-441.2" font-family="Courier,monospace" font-size="11.00" fill="#000000">HeaderUtils</text>
</g>
<!-- \\HttpLog\\HttpModels\\Error -->
<g id="node4" class="node">
<title>\\HttpLog\\HttpModels\\Error</title>
<polygon fill="none" stroke="#000000" points="274,-382 220,-382 220,-346 274,-346 274,-382"/>
<text text-anchor="middle" x="247" y="-361.2" font-family="Courier,monospace" font-size="11.00" fill="#000000">Error</text>
</g>
<!-- \\HttpLog\\HttpModels\\Response -->
<g id="node5" class="node">
<title>\\HttpLog\\HttpModels\\Response</title>
<polygon fill="none" stroke="#000000" points="282.5,-328 211.5,-328 211.5,-292 282.5,-292 282.5,-328"/>
<text text-anchor="middle" x="247" y="-307.2" font-family="Courier,monospace" font-size="11.00" fill="#000000">Response</text>
</g>
<!-- \\HttpLog\\HttpModels\\Request -->
<g id="node6" class="node">
<title>\\HttpLog\\HttpModels\\Request</title>
<polygon fill="none" stroke="#000000" points="279,-274 215,-274 215,-238 279,-238 279,-274"/>
<text text-anchor="middle" x="247" y="-253.2" font-family="Courier,monospace" font-size="11.00" fill="#000000">Request</text>
</g>
<!-- \\HttpLog\\Errors\\ErrorHandler -->
<g id="node7" class="node">
<title>\\HttpLog\\Errors\\ErrorHandler</title>
<polygon fill="none" stroke="#000000" points="296,-194 198,-194 198,-158 296,-158 296,-194"/>
<text text-anchor="middle" x="247" y="-173.2" font-family="Courier,monospace" font-size="11.00" fill="#000000">ErrorHandler</text>
</g>
<!-- \\HttpLog\\Loggers\\BaseLogger -->
<g id="node8" class="node">
<title>\\HttpLog\\Loggers\\BaseLogger</title>
<polygon fill="none" stroke="#000000" points="116,-114 32,-114 32,-78 116,-78 116,-114"/>
<text text-anchor="start" x="40" y="-99.2" font-family="Courier,monospace" font-size="11.00" fill="#000000">«abstract»</text>
<text text-anchor="start" x="40" y="-87.2" font-family="Courier,monospace" font-size="11.00" fill="#000000">BaseLogger</text>
</g>
<!-- \\HttpLog\\Loggers\\FileLogger -->
<g id="node9" class="node">
<title>\\HttpLog\\Loggers\\FileLogger</title>
<polygon fill="none" stroke="#000000" points="289,-114 205,-114 205,-78 289,-78 289,-114"/>
<text text-anchor="middle" x="247" y="-93.2" font-family="Courier,monospace" font-size="11.00" fill="#000000">FileLogger</text>
</g>
<!-- \\HttpLog\\Loggers\\FileLogger&#45;&gt;\\HttpLog\\Loggers\\BaseLogger -->
<g id="edge1" class="edge">
<title>\\HttpLog\\Loggers\\FileLogger&#45;&gt;\\HttpLog\\Loggers\\BaseLogger</title>
<path fill="none" stroke="#000000" d="M204.6794,-96C181.0293,-96 151.3561,-96 126.2653,-96"/>
<polygon fill="none" stroke="#000000" points="126.1832,-92.5001 116.1831,-96 126.1831,-99.5001 126.1832,-92.5001"/>
</g>
<!-- \\HttpLog\\HttpLogger -->
<g id="node10" class="node">
<title>\\HttpLog\\HttpLogger</title>
<polygon fill="none" stroke="#000000" points="289,-60 205,-60 205,-24 289,-24 289,-60"/>
<text text-anchor="middle" x="247" y="-39.2" font-family="Courier,monospace" font-size="11.00" fill="#000000">HttpLogger</text>
</g>
</g>
</svg>
